HIERARCHY
ROOT Hips
{
	OFFSET 0.000000 71.427986 0.000000
	CHANNELS 6 Xposition Yposition Zposition Xrotation Yrotation Zrotation
	JOINT Pelvis
	{
		OFFSET 0.000000 0.000000 0.000000
		CHANNELS 3 Xrotation Yrotation Zrotation
		JOINT LeftUpLeg
		{
			OFFSET 6.797100 -2.508499 -1.318700
			CHANNELS 3 Xrotation Yrotation Zrotation
			JOINT LeftLeg
			{
				OFFSET 0.069008 -29.241863 0.690200
				CHANNELS 3 Xrotation Yrotation Zrotation
				JOINT LeftFoot
				{
					OFFSET -0.069008 -29.568123 -0.266800
					CHANNELS 3 Xrotation Yrotation Zrotation
					JOINT LeftToeBase
					{
						OFFSET 3.145500 -8.631000 16.059900
						CHANNELS 3 Xrotation Yrotation Zrotation
						End Site
						{
							OFFSET 0.000000 18.501587 0.000000
						}
					}
				}
			}
			JOINT Left_ShortSleeve
			{
				OFFSET 0.265923 -10.480953 1.153800
				CHANNELS 3 Xrotation Yrotation Zrotation
				End Site
				{
					OFFSET 1.725763 19.823879 0.000000
				}
			}
		}
		JOINT RightUpLeg
		{
			OFFSET -6.797100 -2.508499 -1.318700
			CHANNELS 3 Xrotation Yrotation Zrotation
			JOINT RightLeg
			{
				OFFSET -0.082453 -29.241932 0.688000
				CHANNELS 3 Xrotation Yrotation Zrotation
				JOINT RightFoot
				{
					OFFSET 0.082453 -29.568058 -0.264600
					CHANNELS 3 Xrotation Yrotation Zrotation
					JOINT RightToeBase
					{
						OFFSET -3.115300 -8.682800 16.113400
						CHANNELS 3 Xrotation Yrotation Zrotation
						End Site
						{
							OFFSET 0.000000 18.567114 0.000000
						}
					}
				}
			}
			JOINT Right_ShortSleeve
			{
				OFFSET -0.265923 -10.480953 1.153800
				CHANNELS 3 Xrotation Yrotation Zrotation
				End Site
				{
					OFFSET -1.725766 19.823910 0.000000
				}
			}
		}
	}
	JOINT Spine
	{
		OFFSET 0.000000 13.368103 0.470500
		CHANNELS 3 Xrotation Yrotation Zrotation
		JOINT Spine1
		{
			OFFSET 0.147000 13.837402 0.538800
			CHANNELS 3 Xrotation Yrotation Zrotation
			JOINT Spine2
			{
				OFFSET 0.168000 16.242897 -1.435500
				CHANNELS 3 Xrotation Yrotation Zrotation
				JOINT Neck
				{
					OFFSET 0.217200 18.631500 -1.679100
					CHANNELS 3 Xrotation Yrotation Zrotation
					JOINT Head
					{
						OFFSET 0.000000 6.599396 1.385900
						CHANNELS 3 Xrotation Yrotation Zrotation
						JOINT Hat
						{
							OFFSET -0.532200 27.220596 -10.096100
							CHANNELS 3 Xrotation Yrotation Zrotation
							End Site
							{
								OFFSET 0.000000 22.029861 0.000000
							}
						}
						JOINT HairD
						{
							OFFSET -10.777400 17.437393 -1.325900
							CHANNELS 3 Xrotation Yrotation Zrotation
							JOINT HairD1
							{
								OFFSET -3.290299 -11.051193 1.062200
								CHANNELS 3 Xrotation Yrotation Zrotation
								End Site
								{
									OFFSET 0.000000 11.579437 0.000000
								}
							}
						}
						JOINT HairB
						{
							OFFSET -10.777400 17.437393 1.467900
							CHANNELS 3 Xrotation Yrotation Zrotation
							JOINT HairB1
							{
								OFFSET -1.561200 -12.956299 3.590200
								CHANNELS 3 Xrotation Yrotation Zrotation
								End Site
								{
									OFFSET 0.000000 13.534866 0.000000
								}
							}
						}
						JOINT HairA
						{
							OFFSET 9.713100 17.437393 1.467900
							CHANNELS 3 Xrotation Yrotation Zrotation
							JOINT HairA1
							{
								OFFSET 1.561200 -12.956299 3.590200
								CHANNELS 3 Xrotation Yrotation Zrotation
								End Site
								{
									OFFSET 0.000000 13.534866 0.000000
								}
							}
						}
						JOINT HairC
						{
							OFFSET 9.713100 17.437393 -1.325900
							CHANNELS 3 Xrotation Yrotation Zrotation
							JOINT HairC1
							{
								OFFSET 3.290300 -11.051193 1.062200
								CHANNELS 3 Xrotation Yrotation Zrotation
								End Site
								{
									OFFSET 0.000000 11.579437 0.000000
								}
							}
						}
					}
				}
				JOINT LeftShoulder
				{
					OFFSET 5.101800 15.108002 -2.763700
					CHANNELS 3 Xrotation Yrotation Zrotation
					JOINT LeftArm
					{
						OFFSET 9.825497 2.506317 -1.597400
						CHANNELS 3 Xrotation Yrotation Zrotation
						JOINT LeftForeArm
						{
							OFFSET 21.966244 0.000000 0.000000
							CHANNELS 3 Xrotation Yrotation Zrotation
							JOINT LeftHand
							{
								OFFSET 33.879036 0.000000 0.000000
								CHANNELS 3 Xrotation Yrotation Zrotation
								JOINT LeftHandThumb1
								{
									OFFSET 6.715286 -2.359680 3.363841
									CHANNELS 3 Xrotation Yrotation Zrotation
									JOINT LeftHandThumb2
									{
										OFFSET 2.507072 -1.447464 1.447461
										CHANNELS 3 Xrotation Yrotation Zrotation
										JOINT LeftHandThumb3
										{
											OFFSET 2.898338 -1.673355 1.673357
											CHANNELS 3 Xrotation Yrotation Zrotation
											End Site
											{
												OFFSET -0.295959 3.727692 -0.131651
											}
										}
									}
								}
								JOINT LeftHandIndex1
								{
									OFFSET 14.190811 -0.254547 3.840278
									CHANNELS 3 Xrotation Yrotation Zrotation
									JOINT LeftHandIndex2
									{
										OFFSET 3.551727 0.000000 -0.000000
										CHANNELS 3 Xrotation Yrotation Zrotation
										JOINT LeftHandIndex3
										{
											OFFSET 2.894196 0.000000 0.000000
											CHANNELS 3 Xrotation Yrotation Zrotation
											End Site
											{
												OFFSET -1.000603 2.690872 0.366626
											}
										}
									}
								}
								JOINT LeftHandMiddle1
								{
									OFFSET 13.776489 0.000000 0.000000
									CHANNELS 3 Xrotation Yrotation Zrotation
									JOINT LeftHandMiddle2
									{
										OFFSET 3.438232 0.000000 0.000000
										CHANNELS 3 Xrotation Yrotation Zrotation
										JOINT LeftHandMiddle3
										{
											OFFSET 3.691551 0.000000 0.000000
											CHANNELS 3 Xrotation Yrotation Zrotation
											End Site
											{
												OFFSET -1.082298 3.499527 0.457670
											}
										}
									}
								}
								JOINT LeftHandRing1
								{
									OFFSET 13.966164 -0.268127 -3.067488
									CHANNELS 3 Xrotation Yrotation Zrotation
									JOINT LeftHandRing2
									{
										OFFSET 3.162567 0.000000 0.000000
										CHANNELS 3 Xrotation Yrotation Zrotation
										JOINT LeftHandRing3
										{
											OFFSET 3.324348 0.000000 0.000000
											CHANNELS 3 Xrotation Yrotation Zrotation
											End Site
											{
												OFFSET -0.861900 3.184998 0.405154
											}
										}
									}
								}
								JOINT LeftHandPinky1
								{
									OFFSET 13.131393 -0.168503 -5.746925
									CHANNELS 3 Xrotation Yrotation Zrotation
									JOINT LeftHandPinky2
									{
										OFFSET 2.849182 0.000000 0.000000
										CHANNELS 3 Xrotation Yrotation Zrotation
										JOINT LeftHandPinky3
										{
											OFFSET 2.805038 0.000000 0.000000
											CHANNELS 3 Xrotation Yrotation Zrotation
											End Site
											{
												OFFSET -0.882500 2.642609 0.325652
											}
										}
									}
								}
							}
							JOINT Left_Sleeve
							{
								OFFSET 6.592125 -0.646545 0.805568
								CHANNELS 3 Xrotation Yrotation Zrotation
								End Site
								{
									OFFSET -0.000179 20.275787 -0.000000
								}
							}
						}
					}
				}
				JOINT RightShoulder
				{
					OFFSET -5.731700 15.108002 -2.763700
					CHANNELS 3 Xrotation Yrotation Zrotation
					JOINT RightArm
					{
						OFFSET -9.825497 2.506317 -1.597400
						CHANNELS 3 Xrotation Yrotation Zrotation
						JOINT RightForeArm
						{
							OFFSET -21.966242 0.000000 0.000000
							CHANNELS 3 Xrotation Yrotation Zrotation
							JOINT RightHand
							{
								OFFSET -33.879032 0.000000 0.000000
								CHANNELS 3 Xrotation Yrotation Zrotation
								JOINT RightHandThumb1
								{
									OFFSET -6.715286 -2.359680 3.363841
									CHANNELS 3 Xrotation Yrotation Zrotation
									JOINT RightHandThumb2
									{
										OFFSET -2.507072 -1.447464 1.447461
										CHANNELS 3 Xrotation Yrotation Zrotation
										JOINT RightHandThumb3
										{
											OFFSET -2.898338 -1.673355 1.673357
											CHANNELS 3 Xrotation Yrotation Zrotation
											End Site
											{
												OFFSET 0.295959 3.727692 -0.131651
											}
										}
									}
								}
								JOINT RightHandIndex1
								{
									OFFSET -14.190811 -0.254547 3.840278
									CHANNELS 3 Xrotation Yrotation Zrotation
									JOINT RightHandIndex2
									{
										OFFSET -3.551727 0.000000 -0.000000
										CHANNELS 3 Xrotation Yrotation Zrotation
										JOINT RightHandIndex3
										{
											OFFSET -2.894196 0.000000 0.000000
											CHANNELS 3 Xrotation Yrotation Zrotation
											End Site
											{
												OFFSET 1.000603 2.690872 0.366626
											}
										}
									}
								}
								JOINT RightHandMiddle1
								{
									OFFSET -13.776489 0.000000 0.000000
									CHANNELS 3 Xrotation Yrotation Zrotation
									JOINT RightHandMiddle2
									{
										OFFSET -3.438232 0.000000 0.000000
										CHANNELS 3 Xrotation Yrotation Zrotation
										JOINT RightHandMiddle3
										{
											OFFSET -3.691551 0.000000 0.000000
											CHANNELS 3 Xrotation Yrotation Zrotation
											End Site
											{
												OFFSET 1.082298 3.499527 0.457670
											}
										}
									}
								}
								JOINT RightHandRing1
								{
									OFFSET -13.966164 -0.268127 -3.067488
									CHANNELS 3 Xrotation Yrotation Zrotation
									JOINT RightHandRing2
									{
										OFFSET -3.162567 0.000000 0.000000
										CHANNELS 3 Xrotation Yrotation Zrotation
										JOINT RightHandRing3
										{
											OFFSET -3.324348 0.000000 0.000000
											CHANNELS 3 Xrotation Yrotation Zrotation
											End Site
											{
												OFFSET 0.861900 3.184998 0.405154
											}
										}
									}
								}
								JOINT RightHandPinky1
								{
									OFFSET -13.131393 -0.168503 -5.746925
									CHANNELS 3 Xrotation Yrotation Zrotation
									JOINT RightHandPinky2
									{
										OFFSET -2.849182 0.000000 0.000000
										CHANNELS 3 Xrotation Yrotation Zrotation
										JOINT RightHandPinky3
										{
											OFFSET -2.805038 0.000000 0.000000
											CHANNELS 3 Xrotation Yrotation Zrotation
											End Site
											{
												OFFSET 0.882500 2.642609 0.325652
											}
										}
									}
								}
							}
							JOINT Right_Sleeve
							{
								OFFSET -6.592125 -0.646545 0.805568
								CHANNELS 3 Xrotation Yrotation Zrotation
								End Site
								{
									OFFSET 0.000179 20.275787 -0.000000
								}
							}
						}
					}
				}
				JOINT Bind_Right_JacketString
				{
					OFFSET -3.534800 11.969597 7.200700
					CHANNELS 3 Xrotation Yrotation Zrotation
					JOINT Bind_Right_JacketString1
					{
						OFFSET -0.319900 -6.102600 2.794100
						CHANNELS 3 Xrotation Yrotation Zrotation
						End Site
						{
							OFFSET 0.000000 6.719452 0.000000
						}
					}
				}
				JOINT Bind_Left_JacketString
				{
					OFFSET 2.904800 11.969597 7.200700
					CHANNELS 3 Xrotation Yrotation Zrotation
					JOINT Bind_Left_JacketString1
					{
						OFFSET 0.364800 -5.904503 3.186800
						CHANNELS 3 Xrotation Yrotation Zrotation
						End Site
						{
							OFFSET 0.000000 6.719513 0.000000
						}
					}
				}
				JOINT HairE
				{
					OFFSET 5.915200 17.612701 -11.592200
					CHANNELS 3 Xrotation Yrotation Zrotation
					JOINT HairE1
					{
						OFFSET 0.289200 -7.171898 -1.284500
						CHANNELS 3 Xrotation Yrotation Zrotation
						End Site
						{
							OFFSET 0.000000 7.291756 0.000000
						}
					}
				}
				JOINT HairF
				{
					OFFSET -0.864800 17.612701 -11.592200
					CHANNELS 3 Xrotation Yrotation Zrotation
					JOINT HairF1
					{
						OFFSET 0.000000 -14.087097 -2.127501
						CHANNELS 3 Xrotation Yrotation Zrotation
						End Site
						{
							OFFSET 0.000000 14.246841 0.000000
						}
					}
				}
				JOINT HairG
				{
					OFFSET -8.087700 17.612701 -11.592200
					CHANNELS 3 Xrotation Yrotation Zrotation
					JOINT HairG1
					{
						OFFSET -0.293600 -6.081398 -0.910100
						CHANNELS 3 Xrotation Yrotation Zrotation
						End Site
						{
							OFFSET 0.000000 6.156120 0.000000
						}
					}
				}
			}
		}
	}
	JOINT Pouch
	{
		OFFSET 0.000000 4.394501 10.847300
		CHANNELS 3 Xrotation Yrotation Zrotation
		End Site
		{
			OFFSET 0.000000 21.880577 0.000000
		}
	}
	JOINT Bag
	{
		OFFSET -13.229000 4.813004 -0.593300
		CHANNELS 3 Xrotation Yrotation Zrotation
		End Site
		{
			OFFSET 0.000000 21.880577 0.000000
		}
	}
	JOINT OccupyGuyFacialAnim_Joint
	{
		OFFSET 1.000000 -70.206398 -1.655000
		CHANNELS 3 Xrotation Yrotation Zrotation
		End Site
		{
			OFFSET 0.000000 21.880577 0.000000
		}
	}
}
MOTION
Frames: 4
Frame Time: 0.033333
0.124061 73.117783 0.446615 -5.782155 39.740708 -0.353393 -0.000000 -0.000001 0.000001 -23.981822 9.883201 13.590302 35.367474 3.997322 0.258857 13.105304 -1.552852 -3.949154 0.000000 -0.000002 0.000001 -0.000001 0.000000 -0.000002 -8.182247 6.514213 10.025708 33.158004 -4.312033 -0.331946 -0.386192 -2.778446 -1.693321 -0.000000 -0.000002 0.000000 -0.000000 0.000001 -0.000002 3.701442 2.278311 1.736202 -3.610316 1.871741 2.561084 -3.627329 1.919427 2.477133 6.599810 -17.958200 0.169955 1.596042 -17.550805 -1.363973 -0.000000 -0.000000 -0.000000 -0.000000 -0.000000 -0.000000 -0.000000 -0.000000 0.000000 -0.000000 -0.000000 -0.000000 -0.000000 -0.000000 -0.000000 -0.000000 -0.000000 -0.000000 -0.000000 -0.000000 -0.000000 -0.000000 -0.000000 -0.000000 -0.000000 -0.000000 -0.000000 3.723452 -3.486853 -0.633220 5.585056 -1.792078 -81.273056 -0.390839 -19.629977 -0.131358 -2.733080 2.123832 8.618082 10.756260 -0.276889 15.889030 -0.891384 26.406614 -5.959730 0.000001 -0.000003 0.000002 1.188002 0.648073 -5.020563 -1.788703 1.904007 -16.719641 0.000004 -0.000001 -0.000002 -1.911057 4.428874 -9.347822 -0.014842 4.070519 -23.701380 0.000003 0.000003 0.000001 -3.675054 10.867590 -6.834780 2.991076 3.454704 -29.218552 -0.000001 0.000001 0.000001 -4.035567 12.929873 -17.157903 8.436452 2.588196 -31.029795 -0.000000 -0.000001 -0.000001 0.000001 0.000000 -0.000000 -0.151799 4.010113 0.286024 7.655192 7.116934 75.697593 -0.576571 18.419289 0.182448 -2.649704 -1.757301 7.469773 15.788725 -2.800692 -17.233903 -2.075434 -31.105948 7.336152 0.000000 0.000000 0.000001 2.370623 -3.625956 8.332590 -2.166844 -2.424688 18.528958 0.000002 0.000001 0.000000 -1.983627 -5.674568 13.528861 0.271171 -5.045421 26.883952 0.000001 -0.000001 -0.000004 -4.968306 -10.103108 10.695063 4.017521 -4.043362 33.181984 -0.000000 -0.000000 -0.000004 -6.479838 -11.318862 23.223586 10.704568 -2.604930 34.787659 -0.000000 -0.000000 0.000000 0.000001 0.000001 0.000001 0.000000 0.000002 0.000000 0.000000 0.000002 -0.000000 0.000000 0.000002 0.000000 0.000000 0.000002 0.000000 0.000000 0.000002 0.000000 0.000000 0.000002 -0.000000 0.000000 0.000002 0.000000 0.000000 0.000002 0.000000 0.000000 0.000002 0.000000 0.000000 0.000002 -0.000000 -0.000000 -0.000001 0.000001 -0.000000 -0.000001 0.000001 -0.000000 -0.000001 0.000001 
0.117292 73.124283 0.456958 -5.920523 39.450462 -0.187781 0.000000 0.000000 -0.000000 -23.785878 10.092972 13.596629 35.307270 4.111926 0.259049 13.088651 -1.581878 -3.986273 0.000001 0.000001 -0.000000 -0.000000 0.000001 -0.000001 -8.058536 6.468765 9.894128 33.189009 -3.945633 -0.342838 -0.406143 -2.782346 -1.793421 -0.000000 0.000001 -0.000000 -0.000000 0.000002 -0.000001 3.758434 2.201619 1.755128 -3.577427 1.811732 2.536863 -3.591105 1.866255 2.452658 6.807326 -17.890077 0.218187 1.662798 -17.481186 -1.409348 -0.000000 0.000001 -0.000000 -0.000000 0.000001 -0.000000 -0.000000 0.000001 0.000000 -0.000000 0.000001 -0.000000 -0.000000 0.000001 -0.000000 -0.000000 0.000001 -0.000000 -0.000000 0.000001 -0.000000 -0.000000 0.000001 -0.000000 -0.000000 0.000001 -0.000000 3.722610 -3.506691 -0.627511 5.527426 -2.069229 -81.179640 -0.463093 -19.855754 -0.184705 -2.744728 2.174471 8.519105 10.756251 -0.276887 15.889026 -0.891383 26.406618 -5.959734 0.000002 0.000001 0.000002 1.185614 0.655619 -5.010631 -1.789083 1.903716 -16.717673 -0.000001 -0.000001 -0.000002 -1.913120 4.423538 -9.336685 -0.016845 4.070610 -23.699085 0.000002 0.000001 0.000001 -3.673006 10.853913 -6.822215 2.992228 3.450042 -29.215482 -0.000002 0.000001 -0.000002 -4.045549 12.916343 -17.141176 8.434363 2.587707 -31.026083 0.000001 -0.000000 0.000003 0.000000 -0.000002 0.000002 -0.152426 4.117916 0.332925 7.554701 7.122965 75.805722 -0.818450 18.399905 0.231586 -2.667417 -1.592499 7.448747 15.788728 -2.800695 -17.233906 -2.075427 -31.105948 7.336154 -0.000001 0.000001 0.000001 2.359230 -3.669540 8.295396 -2.169275 -2.424582 18.518255 0.000000 0.000002 0.000001 -1.981466 -5.699744 13.499760 0.270682 -5.048967 26.876193 0.000005 0.000001 -0.000002 -4.973688 -10.129773 10.669190 4.015858 -4.048303 33.175240 -0.000002 0.000002 -0.000001 -6.473386 -11.359304 23.204154 10.704833 -2.611370 34.783254 -0.000002 0.000000 -0.000003 -0.000007 -0.000001 0.000001 0.000000 -0.000002 -0.000000 -0.000000 -0.000002 -0.000001 0.000000 -0.000002 0.000000 0.000000 -0.000002 0.000000 0.000000 -0.000002 -0.000000 -0.000000 -0.000002 -0.000000 0.000000 -0.000002 0.000000 0.000000 -0.000002 0.000000 0.000000 -0.000002 -0.000000 -0.000000 -0.000002 -0.000000 0.000000 0.000000 -0.000000 0.000000 0.000000 -0.000000 0.000000 0.000000 -0.000000 
0.099145 73.128799 0.444479 -5.911779 39.037936 -0.184872 -0.000000 -0.000001 0.000000 -23.723118 10.274312 13.670550 35.270438 4.348118 0.270231 13.072697 -1.625968 -4.057448 0.000001 0.000002 -0.000001 -0.000004 -0.000001 -0.000001 -8.081033 6.464620 9.842592 33.209503 -3.529477 -0.396313 -0.371013 -2.781872 -1.881525 -0.000001 0.000001 -0.000000 -0.000001 0.000001 0.000000 3.698052 2.194716 1.834428 -3.566821 1.804346 2.501730 -3.578774 1.859126 2.418391 6.983379 -17.794823 0.230826 1.694752 -17.389715 -1.470897 0.000000 0.000000 0.000000 0.000000 0.000000 0.000000 0.000000 0.000000 0.000000 0.000000 0.000000 -0.000000 -0.000000 -0.000001 0.000000 0.000000 0.000000 -0.000000 -0.000000 -0.000001 0.000000 0.000000 0.000000 0.000000 0.000000 0.000000 0.000000 3.731025 -3.529604 -0.574546 5.413834 -2.250095 -81.178274 -0.083681 -20.129158 -0.062700 -2.738636 2.372674 7.963240 10.756248 -0.276891 15.889030 -0.891385 26.406613 -5.959732 0.000000 0.000001 -0.000001 1.184711 0.680208 -4.978384 -1.789482 1.903293 -16.708456 0.000001 0.000000 -0.000000 -1.917035 4.417451 -9.300488 -0.019081 4.070632 -23.689019 -0.000000 0.000000 -0.000001 -3.677914 10.831912 -6.778626 2.993614 3.446487 -29.203181 -0.000000 0.000001 0.000000 -4.055864 12.883220 -17.092258 8.432157 2.587071 -31.012115 0.000001 0.000001 0.000003 0.000002 0.000000 0.000002 -0.145090 4.206180 0.243504 7.504656 7.339339 75.962277 -0.988133 18.452557 0.323026 -2.667980 -1.529870 7.539405 15.788723 -2.800694 -17.233904 -2.075431 -31.105955 7.336152 -0.000001 0.000000 -0.000000 2.350065 -3.765707 8.188542 -2.171598 -2.424233 18.487304 -0.000001 -0.000001 0.000000 -1.979159 -5.772512 13.414702 0.269784 -5.052418 26.853739 -0.000001 0.000000 -0.000004 -4.979989 -10.205702 10.595679 4.014331 -4.052948 33.155364 0.000002 0.000001 0.000000 -6.470006 -11.448335 23.148466 10.705167 -2.617589 34.768392 0.000002 0.000002 -0.000004 -0.000001 -0.000000 0.000001 0.000000 -0.000001 -0.000001 0.000000 -0.000001 -0.000000 0.000000 -0.000001 -0.000000 0.000000 -0.000001 -0.000000 0.000000 -0.000001 -0.000001 0.000000 -0.000001 -0.000000 0.000000 -0.000001 -0.000000 0.000000 -0.000001 -0.000000 0.000000 -0.000001 -0.000001 0.000000 -0.000001 -0.000000 -0.000000 -0.000001 0.000000 -0.000000 -0.000001 0.000000 -0.000000 -0.000001 0.000000 
0.067985 73.134560 0.422851 -5.882239 38.531764 -0.218272 -0.000000 -0.000001 -0.000000 -23.656106 10.393005 13.753903 35.227472 4.694713 0.286813 13.067310 -1.649256 -4.185542 0.000002 0.000002 -0.000001 0.000000 -0.000001 -0.000000 -8.146607 6.533286 9.851118 33.220005 -3.104842 -0.496230 -0.300469 -2.790431 -1.949276 -0.000001 -0.000002 0.000000 -0.000000 0.000002 0.000001 3.703327 2.234046 1.885099 -3.599914 1.823617 2.508874 -3.612453 1.877148 2.424666 7.067613 -17.668304 0.155330 1.736259 -17.285235 -1.516682 0.000000 0.000001 -0.000000 0.000000 0.000001 -0.000000 0.000000 0.000001 0.000000 0.000000 0.000001 0.000000 -0.000000 0.000001 0.000000 0.000000 0.000001 0.000000 -0.000000 0.000001 0.000000 0.000000 0.000001 -0.000000 0.000000 0.000001 -0.000000 3.734854 -3.561370 -0.595176 5.288704 -2.429173 -81.217014 -0.250498 -20.230979 -0.118091 -2.740120 2.181058 7.999894 10.756250 -0.276890 15.889028 -0.891388 26.406621 -5.959734 0.000001 0.000002 0.000002 1.181883 0.720212 -4.926554 -1.789883 1.902749 -16.693635 0.000001 0.000001 -0.000002 -1.923954 4.408192 -9.242398 -0.021518 4.070635 -23.673010 0.000002 0.000000 -0.000005 -3.689911 10.796746 -6.707920 2.994692 3.447671 -29.183698 0.000001 0.000001 0.000000 -4.072283 12.830299 -17.013996 8.429890 2.587753 -30.989975 -0.000000 0.000001 -0.000001 -0.000002 0.000001 -0.000000 -0.135944 4.250122 0.096505 7.454682 7.636884 76.072769 -1.047826 18.549026 0.405669 -2.667434 -1.504184 7.611273 15.788727 -2.800691 -17.233906 -2.075432 -31.105948 7.336149 -0.000001 -0.000001 -0.000001 2.334544 -3.919955 8.016684 -2.174029 -2.423596 18.437571 0.000000 -0.000000 0.000000 -1.974758 -5.889329 13.277922 0.267722 -5.054815 26.817542 -0.000001 -0.000001 0.000001 -4.986956 -10.327876 10.477687 4.012631 -4.057222 33.123289 0.000002 -0.000002 -0.000003 -6.466640 -11.591470 23.058025 10.705393 -2.623649 34.743724 -0.000000 0.000001 -0.000003 0.000000 -0.000001 0.000002 0.000000 -0.000001 -0.000000 -0.000000 -0.000001 -0.000000 0.000000 -0.000001 -0.000000 0.000000 -0.000001 -0.000000 0.000000 -0.000001 -0.000000 -0.000000 -0.000001 -0.000000 0.000000 -0.000001 -0.000000 0.000000 -0.000001 -0.000000 0.000000 -0.000001 -0.000000 -0.000000 -0.000001 -0.000000 -0.000000 -0.000001 -0.000000 -0.000000 -0.000001 -0.000000 -0.000000 -0.000001 -0.000000 
